<svg xmlns="http://www.w3.org/2000/svg" width="800" height="800" class="icon" viewBox="0 0 1024 1024"><path fill="#FF3D00" d="M488.939 242.368s-353.494-71.253-398.55 219.627C45.42 752.917 312.576 843.968 389.76 861.397c77.141 17.408 423.808 65.323 496.533-249.898 60.288-261.206-172.309-418.582-371.605-363.286l-25.75-5.845z"/><path fill="#DD2C00" d="m514.688 248.213-25.75-5.824s-257.77-51.797-361.066 114.304c34.048 20.779 89.877 45.163 89.877 45.163 38.486 16.597 75.478 25.045 109.952 25.045 34.048 0 65.238-8.085 92.374-23.424 8.938 43.158 33.6 88.555 91.008 123.627l41.706 25.472 19.627-44.779c16.448-37.546 24.64-68.842 26.645-97.002 22.08 11.114 46.656 18.218 73.494 18.218 32.192 0 64.746-10.176 96.746-30.186 0 0 42.006-24.256 68.928-44.758-73.194-95.85-204.288-138.944-323.541-105.856z"/><path fill="#4CAF50" d="M533.333 490.688c40.896-93.333 23.659-135.701-16.192-213.355 54.528 71.04 127.296 149.355 229.526 85.355-77.782-20.672-63.702-80.47-160.299-97.43 72.448 3.03 110.763 25.686 160.299-73.237-77.995 41.046-123.563-48.896-224.918 43.776-17.109 10.624-35.072-16.341-48.789-1.728-73.173-121.621-160.128-12.928-195.627-106.048 0 143.19 137.43 104.235 170.667 128-129.365-10.901-119.403 87.552-213.333 106.667 123.562 53.333 203.754 1.344 236.202-87.275-5.077 34.624-48.768 147.328 62.464 215.275z"/><path fill="#4CAF50" d="M469.355 257.28c-.555 4.203 8.362 20.053 37.29 20.053 34.624 0 21.355-17.258 21.355-17.258s-3.179-99.627 69.333-165.462c-18.41-15.253-37.781-7.082-37.781-7.082s-77.419 79.936-90.197 169.749z"/></svg>